
[img]http://www.onlinemovieshut.com/wp-content/uploads/2010/11/watch-harry-potter-and-the-deathly-hallows-part-1-online.jpg[/img]


[b]Screens:[/b]

[b]INFO:[/b]
code]General

Format                           : AVI
Format/Info                      : Audio Video Interleave
File size                        : 519 MiB
Duration                         : 2h 11mn
Overall bit rate                 : 552 Kbps
Writing application              : VirtualDubMod 1.5.10.3 | www.virtualdub-fr.org || (build 2550/release)
Writing library                  : VirtualDubMod build 2550/release

Video
ID                               : 0
Format                           : MPEG-4 Visual
Format profile                   : Advanced Simple@L5
Format settings, BVOP            : Yes
Format settings, QPel            : No
Format settings, GMC             : No warppoints
Format settings, Matrix          : Default (H.263)
Codec ID                         : XVID
Codec ID/Hint                    : XviD
Duration                         : 2h 11mn
Bit rate                         : 414 Kbps
Width                            : 640 pixels
Height                           : 240 pixels
Display aspect ratio             : 2.667
Frame rate                       : 25.000 fps
Color space                      : YUV
Chroma subsampling               : 4:2:0
Bit depth                        : 8 bits
Scan type                        : Progressive
Bits/(Pixel*Frame)               : 0.108
Stream size                      : 390 MiB (75%)
Writing library                  : XviD 1.2.1 (UTC 2008-12-04)

Audio
ID                               : 1
Format                           : MPEG Audio
Format version                   : Version 1
Format profile                   : Layer 3
Codec ID                         : 55
Codec ID/Hint                    : MP3
Duration                         : 2h 11mn
Bit rate mode                    : Constant
Bit rate                         : 128 Kbps
Channel(s)                       : 2 channels
Sampling rate                    : 44.1 KHz
Video delay                      : 25ms
Stream size                      : 121 MiB (23%)
Alignment                        : Split accross interleaves
Interleave, duration             : 40 ms (1.00 video frame)
Interleave, preload duration     : 500 ms
Ripper                           : Striker[TheDesiAdda.Com]
[/code]

[b]
GIVE CREDITS TO STRIKER AND TEAM TDA WHEN U SHARE.....[/b]